<svg width="343" height="190" viewBox="0 0 343 190" fill="none" xmlns="http://www.w3.org/2000/svg">
<rect width="343" height="190" rx="5" fill="#40BFFF"/>
<g style="mix-blend-mode:multiply">
<circle cx="35" cy="35" r="11" fill="#C4C4C4"/>
</g>
<g style="mix-blend-mode:multiply">
<circle cx="49" cy="35" r="11" fill="#C4C4C4"/>
</g>
<path d="M34.8608 90.208C34.6448 87.616 32.9648 85.12 29.1968 85.12C24.6608 85.12 22.7888 88.12 22.7888 94.12C22.7888 99.352 24.0848 103.096 29.3648 103.096C33.1328 103.096 35.3408 100.696 35.3408 97.216C35.3408 93.568 33.1808 91.576 30.1328 91.576C28.5248 91.576 27.1088 92.248 26.4128 93.376C26.4368 89.992 27.1568 88.432 29.0048 88.432C30.2288 88.432 30.8048 89.056 31.0448 90.208H34.8608ZM29.1488 94.816C30.6848 94.816 31.4768 95.776 31.4768 97.24C31.4768 98.728 30.5888 99.616 29.1968 99.616C27.6368 99.616 26.7488 98.704 26.7488 97.168C26.7488 95.584 27.8528 94.816 29.1488 94.816ZM38.306 90.424H42.314C42.386 89.464 42.866 88.504 44.186 88.504C45.29 88.504 45.986 89.152 45.986 90.328C45.986 91.912 44.642 92.248 43.25 92.248H42.482V95.584H43.25C45.386 95.584 46.322 96.208 46.322 97.768C46.322 98.92 45.626 99.736 44.354 99.736C42.842 99.736 42.098 98.824 42.074 97.456H38.09C38.21 101.416 40.85 103.144 44.498 103.144C48.17 103.144 50.282 101.032 50.282 98.08C50.282 95.776 49.082 94.432 47.33 93.856V93.76C48.53 93.352 49.97 92.128 49.97 89.824C49.97 87.184 47.978 85.072 44.282 85.072C40.706 85.072 38.45 86.968 38.306 90.424ZM53.0493 102.76H65.0973V99.424H58.6173C61.4013 97.288 64.8333 94.216 64.8333 90.376C64.8333 87.424 63.0573 85.096 59.0733 85.096C55.8813 85.096 53.1213 86.92 53.0013 91.168H56.9613C56.9613 89.512 57.6813 88.552 58.9053 88.552C60.1533 88.552 60.7293 89.368 60.7293 90.64C60.7293 93.592 56.7693 96.64 53.0493 99.712V102.76ZM79.8842 90.208C79.6682 87.616 77.9882 85.12 74.2202 85.12C69.6842 85.12 67.8122 88.12 67.8122 94.12C67.8122 99.352 69.1082 103.096 74.3882 103.096C78.1562 103.096 80.3642 100.696 80.3642 97.216C80.3642 93.568 78.2042 91.576 75.1562 91.576C73.5482 91.576 72.1322 92.248 71.4362 93.376C71.4602 89.992 72.1802 88.432 74.0282 88.432C75.2522 88.432 75.8282 89.056 76.0682 90.208H79.8842ZM74.1722 94.816C75.7082 94.816 76.5002 95.776 76.5002 97.24C76.5002 98.728 75.6122 99.616 74.2202 99.616C72.6602 99.616 71.7722 98.704 71.7722 97.168C71.7722 95.584 72.8762 94.816 74.1722 94.816ZM106.153 97.864C106.345 100.552 108.193 103.072 112.009 103.072C116.713 103.072 118.105 99.76 118.105 93.784C118.105 88.456 116.713 85.072 111.721 85.072C108.001 85.072 105.697 87.376 105.697 90.928C105.697 94.648 108.001 96.52 111.001 96.52C112.489 96.52 113.785 95.944 114.481 94.96C114.481 98.296 113.881 99.76 112.153 99.76C110.881 99.76 110.185 99.088 109.945 97.864H106.153ZM111.937 93.28C110.329 93.28 109.561 92.296 109.561 90.976C109.561 89.512 110.425 88.6 111.841 88.6C113.233 88.6 114.145 89.44 114.145 91C114.145 92.416 113.281 93.28 111.937 93.28ZM122.739 103H127.011V85.48H120.363V89.296H122.739V103ZM130.174 102.76H142.222V99.424H135.742C138.526 97.288 141.958 94.216 141.958 90.376C141.958 87.424 140.182 85.096 136.198 85.096C133.006 85.096 130.246 86.92 130.126 91.168H134.086C134.086 89.512 134.806 88.552 136.03 88.552C137.278 88.552 137.854 89.368 137.854 90.64C137.854 93.592 133.894 96.64 130.174 99.712V102.76ZM152.689 103H156.793V99.88H158.761V96.328H156.793V85.72H152.209L144.625 96.568V99.88H152.689V103ZM148.945 96.328L152.977 90.232V96.328H148.945ZM186.495 93.592C184.815 94.384 183.831 95.872 183.831 97.864C183.831 101.368 186.735 103.336 190.311 103.336C193.887 103.336 196.791 101.368 196.791 97.864C196.791 95.872 195.807 94.408 194.103 93.592C195.423 92.896 196.359 91.624 196.359 89.824C196.359 87.328 194.439 85.12 190.311 85.12C186.183 85.12 184.239 87.328 184.239 89.824C184.239 91.672 185.151 92.872 186.495 93.592ZM190.311 92.488C189.135 92.488 188.247 91.744 188.247 90.472C188.247 89.128 189.087 88.384 190.311 88.384C191.535 88.384 192.375 89.128 192.375 90.448C192.375 91.72 191.487 92.488 190.311 92.488ZM190.311 95.368C191.775 95.368 192.783 96.232 192.783 97.672C192.783 98.968 191.871 99.976 190.311 99.976C188.727 99.976 187.791 98.992 187.791 97.672C187.791 96.184 188.847 95.368 190.311 95.368ZM201.622 103H205.894V85.48H199.246V89.296H201.622V103ZM209.057 102.76H221.105V99.424H214.625C217.409 97.288 220.841 94.216 220.841 90.376C220.841 87.424 219.065 85.096 215.081 85.096C211.889 85.096 209.129 86.92 209.009 91.168H212.969C212.969 89.512 213.689 88.552 214.913 88.552C216.161 88.552 216.737 89.368 216.737 90.64C216.737 93.592 212.777 96.64 209.057 99.712V102.76ZM231.572 103H235.676V99.88H237.644V96.328H235.676V85.72H231.092L223.508 96.568V99.88H231.572V103ZM227.828 96.328L231.86 90.232V96.328H227.828ZM263.122 97.864C263.314 100.552 265.162 103.072 268.978 103.072C273.682 103.072 275.074 99.76 275.074 93.784C275.074 88.456 273.682 85.072 268.69 85.072C264.97 85.072 262.666 87.376 262.666 90.928C262.666 94.648 264.97 96.52 267.97 96.52C269.458 96.52 270.754 95.944 271.45 94.96C271.45 98.296 270.85 99.76 269.122 99.76C267.85 99.76 267.154 99.088 266.914 97.864H263.122ZM268.906 93.28C267.298 93.28 266.53 92.296 266.53 90.976C266.53 89.512 267.394 88.6 268.81 88.6C270.202 88.6 271.114 89.44 271.114 91C271.114 92.416 270.25 93.28 268.906 93.28ZM280.644 93.592C278.964 94.384 277.98 95.872 277.98 97.864C277.98 101.368 280.884 103.336 284.46 103.336C288.036 103.336 290.94 101.368 290.94 97.864C290.94 95.872 289.956 94.408 288.252 93.592C289.572 92.896 290.508 91.624 290.508 89.824C290.508 87.328 288.588 85.12 284.46 85.12C280.332 85.12 278.388 87.328 278.388 89.824C278.388 91.672 279.3 92.872 280.644 93.592ZM284.46 92.488C283.284 92.488 282.396 91.744 282.396 90.472C282.396 89.128 283.236 88.384 284.46 88.384C285.684 88.384 286.524 89.128 286.524 90.448C286.524 91.72 285.636 92.488 284.46 92.488ZM284.46 95.368C285.924 95.368 286.932 96.232 286.932 97.672C286.932 98.968 286.02 99.976 284.46 99.976C282.876 99.976 281.94 98.992 281.94 97.672C281.94 96.184 282.996 95.368 284.46 95.368ZM293.418 85.504V89.008H300.882L294.786 103H298.986L305.01 88.552V85.504H293.418ZM308.298 85.456V95.896H312.258C312.474 95.08 313.146 94.456 314.298 94.456C315.762 94.456 316.554 95.296 316.554 96.88C316.554 98.392 315.882 99.52 314.322 99.52C312.978 99.52 312.282 98.704 312.114 97.792H308.106C308.25 100.816 310.53 103 314.466 103C318.354 103 320.514 100.6 320.514 96.904C320.514 94.072 319.05 91.168 315.234 91.168C313.842 91.168 312.642 91.672 312.018 92.368V89.056H319.506V85.456H308.298Z" fill="white"/>
<path opacity="0.5" d="M21.43 139.51C21.43 141.6 22.96 143.06 24.91 143.06C26.42 143.06 27.62 142.31 28.14 140.97H27.05C26.67 141.8 25.93 142.27 24.91 142.27C23.45 142.27 22.36 141.21 22.36 139.51C22.36 137.8 23.45 136.74 24.91 136.74C25.93 136.74 26.67 137.21 27.05 138.05H28.14C27.62 136.7 26.42 135.94 24.91 135.94C22.96 135.94 21.43 137.42 21.43 139.51ZM34.6746 143H35.6346L33.1246 136.07H32.0746L29.5546 143H30.5146L31.0746 141.45H34.1146L34.6746 143ZM33.8546 140.71H31.3346L32.5946 137.19L33.8546 140.71ZM40.9629 138.08C40.9629 138.86 40.5129 139.42 39.4829 139.42H38.1429V136.78H39.4829C40.5229 136.78 40.9629 137.29 40.9629 138.08ZM37.2329 136.03V143H38.1429V140.15H39.2429L40.9029 143H41.9929L40.2429 140.08C41.4129 139.82 41.9029 138.97 41.9029 138.08C41.9029 136.94 41.1229 136.03 39.4829 136.03H37.2329ZM45.9869 136.03H43.8169V143H45.9869C48.2769 143 49.6869 141.69 49.6869 139.53C49.6869 137.37 48.2769 136.03 45.9869 136.03ZM44.7269 142.25V136.77H45.9869C47.8069 136.77 48.7569 137.83 48.7569 139.53C48.7569 141.23 47.8069 142.25 45.9869 142.25H44.7269ZM59.0132 143H59.9232V136.03H59.0132V139.09H55.4632V136.03H54.5532V143H55.4632V139.84H59.0132V143ZM68.6273 139.51C68.6273 137.42 67.0973 135.95 65.1273 135.95C63.1673 135.95 61.6273 137.42 61.6273 139.51C61.6273 141.6 63.1673 143.07 65.1273 143.07C67.0973 143.07 68.6273 141.6 68.6273 139.51ZM62.5573 139.51C62.5573 137.8 63.6573 136.74 65.1273 136.74C66.5973 136.74 67.6973 137.8 67.6973 139.51C67.6973 141.21 66.5973 142.28 65.1273 142.28C63.6573 142.28 62.5573 141.21 62.5573 139.51ZM70.3286 136.03V143H73.6786V142.26H71.2386V136.03H70.3286ZM77.315 136.03H75.145V143H77.315C79.605 143 81.015 141.69 81.015 139.53C81.015 137.37 79.605 136.03 77.315 136.03ZM76.055 142.25V136.77H77.315C79.135 136.77 80.085 137.83 80.085 139.53C80.085 141.23 79.135 142.25 77.315 142.25H76.055ZM86.4653 136.02H82.7153V143H86.4653V142.25H83.6253V139.85H86.1653V139.1H83.6253V136.77H86.4653V136.02ZM92.0723 138.08C92.0723 138.86 91.6223 139.42 90.5923 139.42H89.2523V136.78H90.5923C91.6323 136.78 92.0723 137.29 92.0723 138.08ZM88.3423 136.03V143H89.2523V140.15H90.3523L92.0123 143H93.1023L91.3523 140.08C92.5223 139.82 93.0123 138.97 93.0123 138.08C93.0123 136.94 92.2323 136.03 90.5923 136.03H88.3423Z" fill="white"/>
<path opacity="0.5" d="M131.43 137.51C131.43 139.6 132.96 141.06 134.91 141.06C136.42 141.06 137.62 140.31 138.14 138.97H137.05C136.67 139.8 135.93 140.27 134.91 140.27C133.45 140.27 132.36 139.21 132.36 137.51C132.36 135.8 133.45 134.74 134.91 134.74C135.93 134.74 136.67 135.21 137.05 136.05H138.14C137.62 134.7 136.42 133.94 134.91 133.94C132.96 133.94 131.43 135.42 131.43 137.51ZM144.675 141H145.635L143.125 134.07H142.075L139.555 141H140.515L141.075 139.45H144.115L144.675 141ZM143.855 138.71H141.335L142.595 135.19L143.855 138.71ZM150.963 136.08C150.963 136.86 150.513 137.42 149.483 137.42H148.143V134.78H149.483C150.523 134.78 150.963 135.29 150.963 136.08ZM147.233 134.03V141H148.143V138.15H149.243L150.903 141H151.993L150.243 138.08C151.413 137.82 151.903 136.97 151.903 136.08C151.903 134.94 151.123 134.03 149.483 134.03H147.233ZM155.987 134.03H153.817V141H155.987C158.277 141 159.687 139.69 159.687 137.53C159.687 135.37 158.277 134.03 155.987 134.03ZM154.727 140.25V134.77H155.987C157.807 134.77 158.757 135.83 158.757 137.53C158.757 139.23 157.807 140.25 155.987 140.25H154.727ZM169.083 139.1C169.083 136.52 165.323 137.64 165.323 135.84C165.323 135.09 165.913 134.7 166.663 134.72C167.513 134.73 167.953 135.26 168.013 135.73H169.013C168.903 134.67 168.033 133.94 166.703 133.94C165.323 133.94 164.393 134.72 164.393 135.87C164.393 138.46 168.163 137.26 168.163 139.14C168.163 139.8 167.643 140.3 166.763 140.3C165.793 140.3 165.383 139.72 165.323 139.14H164.353C164.373 140.29 165.363 141.07 166.763 141.07C168.273 141.07 169.083 140.09 169.083 139.1ZM175.602 141H176.562L174.052 134.07H173.002L170.482 141H171.442L172.002 139.45H175.042L175.602 141ZM174.782 138.71H172.262L173.522 135.19L174.782 138.71ZM180.771 140.04L178.581 134.03H177.611L180.241 141H181.291L183.921 134.03H182.961L180.771 140.04ZM189.168 134.02H185.418V141H189.168V140.25H186.328V137.85H188.868V137.1H186.328V134.77H189.168V134.02Z" fill="white"/>
<path d="M30.4912 154.98H27.8612V162H30.4912C32.7312 162 34.1712 160.57 34.1712 158.49C34.1712 156.4 32.7312 154.98 30.4912 154.98ZM29.5712 160.52V156.44H30.3812C31.6712 156.44 32.4312 157.2 32.4312 158.49C32.4312 159.78 31.6712 160.52 30.3812 160.52H29.5712ZM41.0868 159.21C41.0868 157.44 39.8268 156.34 38.1868 156.34C36.5568 156.34 35.2868 157.44 35.2868 159.21C35.2868 160.98 36.5268 162.08 38.1668 162.08C39.8068 162.08 41.0868 160.98 41.0868 159.21ZM37.0268 159.21C37.0268 158.26 37.5668 157.82 38.1868 157.82C38.7868 157.82 39.3468 158.26 39.3468 159.21C39.3468 160.15 38.7768 160.6 38.1668 160.6C37.5468 160.6 37.0268 160.15 37.0268 159.21ZM50.184 162H51.884V158.74C51.884 157.24 50.994 156.36 49.614 156.36C48.804 156.36 48.104 156.81 47.734 157.4C47.354 156.73 46.674 156.36 45.834 156.36C45.104 156.36 44.534 156.67 44.204 157.12V156.42H42.494V162H44.204V158.97C44.204 158.24 44.624 157.84 45.274 157.84C45.924 157.84 46.344 158.24 46.344 158.97V162H48.044V158.97C48.044 158.24 48.464 157.84 49.114 157.84C49.764 157.84 50.184 158.24 50.184 158.97V162ZM53.58 162H55.29V156.42H53.58V162ZM54.44 155.84C55.04 155.84 55.45 155.43 55.45 154.92C55.45 154.4 55.04 153.99 54.44 153.99C53.83 153.99 53.42 154.4 53.42 154.92C53.42 155.43 53.83 155.84 54.44 155.84ZM60.8792 162H62.5792V158.74C62.5792 157.24 61.7192 156.36 60.4292 156.36C59.6792 156.36 59.0792 156.69 58.7392 157.16V156.42H57.0292V162H58.7392V158.97C58.7392 158.21 59.1592 157.79 59.8092 157.79C60.4592 157.79 60.8792 158.21 60.8792 158.97V162ZM64.2675 162H65.9775V156.42H64.2675V162ZM65.1275 155.84C65.7275 155.84 66.1375 155.43 66.1375 154.92C66.1375 154.4 65.7275 153.99 65.1275 153.99C64.5175 153.99 64.1075 154.4 64.1075 154.92C64.1075 155.43 64.5175 155.84 65.1275 155.84ZM67.3767 159.21C67.3767 160.98 68.5367 162.08 70.1767 162.08C71.5767 162.08 72.5667 161.27 72.8567 159.98H71.0367C70.8867 160.39 70.6167 160.62 70.1467 160.62C69.5367 160.62 69.1167 160.14 69.1167 159.21C69.1167 158.28 69.5367 157.8 70.1467 157.8C70.6167 157.8 70.8967 158.05 71.0367 158.44H72.8567C72.5667 157.11 71.5767 156.34 70.1767 156.34C68.5367 156.34 67.3767 157.45 67.3767 159.21ZM83.8005 158.47C83.8005 156.36 82.2105 154.88 80.2105 154.88C78.2205 154.88 76.6005 156.36 76.6005 158.47C76.6005 160.58 78.2205 162.07 80.2105 162.07C82.2005 162.07 83.8005 160.58 83.8005 158.47ZM78.3505 158.47C78.3505 157.22 79.0705 156.43 80.2105 156.43C81.3305 156.43 82.0605 157.22 82.0605 158.47C82.0605 159.7 81.3305 160.51 80.2105 160.51C79.0705 160.51 78.3505 159.7 78.3505 158.47ZM84.7218 156.42L86.7018 162H88.8118L90.7918 156.42H88.9718L87.7618 160.4L86.5518 156.42H84.7218ZM97.4716 159.21C97.4716 157.44 96.2116 156.34 94.5716 156.34C92.9416 156.34 91.6716 157.44 91.6716 159.21C91.6716 160.98 92.9116 162.08 94.5516 162.08C96.1916 162.08 97.4716 160.98 97.4716 159.21ZM93.4116 159.21C93.4116 158.26 93.9516 157.82 94.5716 157.82C95.1716 157.82 95.7316 158.26 95.7316 159.21C95.7316 160.15 95.1616 160.6 94.5516 160.6C93.9316 160.6 93.4116 160.15 93.4116 159.21Z" fill="white"/>
<path d="M132.68 160H134.46V152.7H131.69V154.29H132.68V160ZM136.39 157.86C136.47 158.98 137.24 160.03 138.83 160.03C140.79 160.03 141.37 158.65 141.37 156.16C141.37 153.94 140.79 152.53 138.71 152.53C137.16 152.53 136.2 153.49 136.2 154.97C136.2 156.52 137.16 157.3 138.41 157.3C139.03 157.3 139.57 157.06 139.86 156.65C139.86 158.04 139.61 158.65 138.89 158.65C138.36 158.65 138.07 158.37 137.97 157.86H136.39ZM138.8 155.95C138.13 155.95 137.81 155.54 137.81 154.99C137.81 154.38 138.17 154 138.76 154C139.34 154 139.72 154.35 139.72 155C139.72 155.59 139.36 155.95 138.8 155.95ZM142.432 161.87H144.082L146.762 150.5H145.112L142.432 161.87ZM147.753 159.9H152.773V158.51H150.073C151.233 157.62 152.663 156.34 152.663 154.74C152.663 153.51 151.923 152.54 150.263 152.54C148.933 152.54 147.783 153.3 147.733 155.07H149.383C149.383 154.38 149.683 153.98 150.193 153.98C150.713 153.98 150.953 154.32 150.953 154.85C150.953 156.08 149.303 157.35 147.753 158.63V159.9ZM154.026 156.25C154.026 158.41 154.756 159.97 156.836 159.97C158.916 159.97 159.646 158.41 159.646 156.25C159.646 154.11 158.916 152.55 156.836 152.55C154.756 152.55 154.026 154.11 154.026 156.25ZM157.966 156.25C157.966 157.41 157.846 158.37 156.836 158.37C155.826 158.37 155.706 157.41 155.706 156.25C155.706 155.13 155.826 154.15 156.836 154.15C157.846 154.15 157.966 155.13 157.966 156.25ZM164.45 160H166.16V158.7H166.98V157.22H166.16V152.8H164.25L161.09 157.32V158.7H164.45V160ZM162.89 157.22L164.57 154.68V157.22H162.89ZM168.257 159.9H173.277V158.51H170.577C171.737 157.62 173.167 156.34 173.167 154.74C173.167 153.51 172.427 152.54 170.767 152.54C169.437 152.54 168.287 153.3 168.237 155.07H169.887C169.887 154.38 170.187 153.98 170.697 153.98C171.217 153.98 171.457 154.32 171.457 154.85C171.457 156.08 169.807 157.35 168.257 158.63V159.9Z" fill="white"/>
</svg>
